<svg width="56" height="56" viewBox="0 0 56 56" fill="none" xmlns="http://www.w3.org/2000/svg">
<rect width="56" height="56" rx="8" fill="black"/>
<path d="M27.6378 26.3833C27.6378 26.1417 27.5687 25.9692 27.3962 25.8656C27.2236 25.7276 26.9475 25.624 26.5333 25.486C26.1191 25.3479 25.774 25.2099 25.5324 25.0718C24.8421 24.7267 24.5315 24.2434 24.5315 23.6222C24.5315 23.3116 24.635 23.0354 24.8076 22.7938C24.9801 22.5522 25.2563 22.3451 25.6014 22.2071C25.9466 22.069 26.3262 22 26.7404 22C27.1546 22 27.5342 22.069 27.8794 22.2416C28.2245 22.3797 28.4661 22.5867 28.6387 22.8629C28.8113 23.139 28.9148 23.4496 28.9148 23.7948H27.6378C27.6378 23.5186 27.5687 23.3116 27.3962 23.1735C27.2236 23.0354 26.982 22.9664 26.6714 22.9664C26.3607 22.9664 26.1536 23.0354 25.9811 23.139C25.8085 23.277 25.7395 23.4151 25.7395 23.6222C25.7395 23.7948 25.843 23.9673 26.0156 24.1054C26.2227 24.2434 26.4988 24.347 26.8785 24.4505C27.5687 24.6576 28.0865 24.8992 28.3971 25.2099C28.7077 25.5205 28.8803 25.9001 28.8803 26.3488C28.8803 26.8666 28.6732 27.2462 28.2935 27.5223C27.9139 27.7984 27.3962 27.9365 26.7404 27.9365C26.2917 27.9365 25.8775 27.8675 25.4979 27.6949C25.1182 27.5223 24.8421 27.3152 24.635 27.0046C24.4279 26.7285 24.3589 26.3833 24.3589 26.0037H25.6014C25.6014 26.6595 25.9811 26.9701 26.7749 26.9701C27.051 26.9701 27.2926 26.9011 27.4652 26.7975C27.5342 26.7285 27.6378 26.5904 27.6378 26.3833Z" fill="white"/>
<path d="M34.2995 26.2105L35.0934 22.0688H36.3014L35.0243 27.9017H33.7818L32.8154 24.0016L31.849 27.9017H30.6065L29.2949 22.1033H30.5029L31.2968 26.2105L32.2632 22.1033H33.2986L34.2995 26.2105Z" fill="white"/>
<path d="M40.1674 26.6936H38.0275L37.6133 27.9016H36.3018L38.5107 22.1031H39.6497L41.8586 27.9016H40.547L40.1674 26.6936ZM38.3381 25.7272H39.8222L39.0629 23.5528L38.3381 25.7272Z" fill="white"/>
<path d="M43.6519 25.8652V27.9016H42.4438V22.1031H44.7563C45.205 22.1031 45.5847 22.1722 45.9298 22.3448C46.275 22.5173 46.5166 22.7244 46.7237 23.035C46.8962 23.3112 46.9998 23.6563 46.9998 24.036C46.9998 24.5882 46.7927 25.0369 46.413 25.382C46.0334 25.6927 45.4811 25.8652 44.7563 25.8652H43.6519ZM43.6519 24.8988H44.7563C45.067 24.8988 45.3086 24.8298 45.4811 24.6917C45.6537 24.5537 45.7227 24.3466 45.7227 24.0705C45.7227 23.7944 45.6537 23.5528 45.4811 23.3802C45.3086 23.2076 45.067 23.1041 44.7563 23.1041H43.6519V24.8988Z" fill="white"/>
<path d="M27.8794 33.3895C27.8794 33.0789 27.7759 32.8373 27.5343 32.6647C27.3272 32.4921 26.913 32.3196 26.3262 32.147C25.7395 31.9744 25.3253 31.8018 25.0492 31.6293C24.6695 31.3532 24.4625 31.008 24.4625 30.5938C24.4625 30.1797 24.635 29.8345 24.9802 29.5584C25.3253 29.2823 25.774 29.1442 26.3262 29.1442C26.7059 29.1442 27.0165 29.2133 27.3272 29.3513C27.6378 29.4894 27.8449 29.6965 28.0175 29.9381C28.19 30.1797 28.2591 30.4558 28.2591 30.7664H27.7759C27.7759 30.3868 27.6378 30.0761 27.3962 29.869C27.1201 29.6274 26.7749 29.5239 26.3262 29.5239C25.9121 29.5239 25.5669 29.6274 25.2908 29.8C25.0492 29.9726 24.9111 30.2142 24.9111 30.5248C24.9111 30.8009 25.0147 31.0425 25.2563 31.2151C25.4979 31.3877 25.843 31.5602 26.3608 31.6983C26.8785 31.8364 27.2581 31.9744 27.4997 32.1125C27.7759 32.2505 27.9484 32.4231 28.0865 32.6302C28.2245 32.8373 28.2936 33.0789 28.2936 33.355C28.2936 33.8037 28.121 34.1488 27.7759 34.3904C27.4307 34.6666 26.9475 34.7701 26.3608 34.7701C25.9811 34.7701 25.6014 34.7011 25.2563 34.563C24.9111 34.425 24.6695 34.2179 24.497 33.9763C24.3244 33.7347 24.2554 33.424 24.2554 33.1134H24.7386C24.7386 33.4931 24.8766 33.8037 25.1873 34.0453C25.4979 34.2869 25.8776 34.3904 26.3608 34.3904C26.8095 34.3904 27.1546 34.2869 27.4307 34.1143C27.7413 33.9763 27.8794 33.7001 27.8794 33.3895Z" fill="#FBFF5C"/>
<path d="M29.7781 32.5269V34.7704H29.2949V29.248H31.2277C31.8145 29.248 32.2632 29.3861 32.6083 29.6967C32.9535 29.9729 33.126 30.387 33.126 30.9047C33.126 31.4225 32.9535 31.8366 32.6428 32.1128C32.3322 32.3889 31.849 32.5269 31.2277 32.5269H29.7781ZM29.7781 32.1128H31.2277C31.6764 32.1128 32.0561 32.0092 32.2977 31.8021C32.5393 31.595 32.6774 31.2844 32.6774 30.9047C32.6774 30.5251 32.5393 30.2145 32.2977 30.0074C32.0561 29.7658 31.7109 29.6622 31.2623 29.6622H29.7781V32.1128Z" fill="#FBFF5C"/>
<path d="M36.6118 33.2172H34.0577L33.471 34.7704H32.9878L35.1277 29.248H35.5764L37.7163 34.7704H37.2331L36.6118 33.2172ZM34.1958 32.803H36.4392L35.3003 29.8003L34.1958 32.803Z" fill="#FBFF5C"/>
<path d="M42.3758 33.0443C42.3068 33.631 42.0997 34.0797 41.7546 34.3903C41.4094 34.701 40.9262 34.839 40.3049 34.839C39.8908 34.839 39.5111 34.7355 39.2005 34.5284C38.8898 34.3213 38.6482 34.0452 38.4412 33.6655C38.2686 33.2859 38.165 32.8717 38.165 32.3885V31.6637C38.165 31.1805 38.2686 30.7318 38.4412 30.3521C38.6137 29.9725 38.8553 29.6964 39.2005 29.4893C39.5456 29.2822 39.9253 29.1786 40.3395 29.1786C40.9262 29.1786 41.4094 29.3512 41.7546 29.6619C42.0997 29.9725 42.3068 30.4212 42.3758 30.9734H41.8926C41.7891 30.0415 41.2714 29.5583 40.3395 29.5583C39.8217 29.5583 39.4076 29.7309 39.1314 30.1105C38.8208 30.4902 38.6828 31.0079 38.6828 31.6637V32.354C38.6828 32.9753 38.8208 33.493 39.1314 33.8726C39.4421 34.2523 39.8217 34.4249 40.3395 34.4249C40.8227 34.4249 41.2023 34.3213 41.4784 34.0797C41.72 33.8381 41.8926 33.493 41.9616 33.0443H42.3758Z" fill="#FBFF5C"/>
<path d="M46.5513 32.1129H43.9282V34.3564H46.9655V34.736H43.4795V29.2137H46.9655V29.6279H43.9627V31.6987H46.5858V32.1129H46.5513Z" fill="#FBFF5C"/>
<path fill-rule="evenodd" clip-rule="evenodd" d="M22.0465 28.4196C22.0465 31.94 19.1128 34.8048 15.5233 34.8048C11.9337 34.8048 9 31.94 9 28.4196C9 24.8991 11.9337 22.0344 15.5233 22.0344C19.1128 22.0344 22.0465 24.8991 22.0465 28.4196ZM19.4234 25.831C19.4234 26.2797 19.0437 26.6593 18.595 26.6593C18.1464 26.6593 17.7667 26.2797 17.7667 25.831C17.7667 25.3823 18.1464 25.0026 18.595 25.0026C19.0437 25.0026 19.4234 25.3823 19.4234 25.831ZM15.4887 25.831C16.3171 25.831 17.0074 25.3823 17.0074 24.83C17.0074 24.2778 16.3171 23.8291 15.4887 23.8291C14.6604 23.8291 13.9701 24.2778 13.9701 24.83C13.9701 25.3823 14.6604 25.831 15.4887 25.831Z" fill="#FBFF5C"/>
</svg>
