<svg xmlns="http://www.w3.org/2000/svg" width="56" height="56" fill="none"><rect width="56" height="56" fill="#000" rx="8"/><g clip-path="url(#a)"><path fill="#5849FF" d="m19.984 31.182 3.868-8.257a.8.8 0 0 1 .301-.334.86.86 0 0 1 .448-.124h2.326c.05 0 .095.028.114.07l4.025 8.647a.11.11 0 0 1-.009.113.1.1 0 0 1-.046.04.13.13 0 0 1-.06.014h-1.83a.13.13 0 0 1-.067-.02.1.1 0 0 1-.046-.05l-.811-1.64a.12.12 0 0 0-.047-.05.13.13 0 0 0-.068-.018h-5.093a.13.13 0 0 0-.069.018.12.12 0 0 0-.047.05l-.81 1.636a.12.12 0 0 1-.047.051.13.13 0 0 1-.068.019H20.1a.13.13 0 0 1-.06-.013.1.1 0 0 1-.046-.04.11.11 0 0 1-.01-.112m3.868-3.185h3.379c.031 0 .062-.01.085-.03a.114.114 0 0 0 .031-.133l-1.69-3.782a.12.12 0 0 0-.046-.052.13.13 0 0 0-.07-.02.13.13 0 0 0-.07.02.12.12 0 0 0-.046.052l-1.689 3.782a.11.11 0 0 0 .01.108q.016.024.042.039t.058.015zm8.349 3.354a.13.13 0 0 1-.089-.035.11.11 0 0 1-.036-.083v-8.121a.63.63 0 0 1 .21-.46.72.72 0 0 1 .496-.184h3.668q1.782 0 2.783.799c.667.532.953 1.281.953 2.291 0 1.018-.286 1.816-.953 2.349s-1.595.752-2.783.752h-2.376v2.575a.11.11 0 0 1-.037.083.13.13 0 0 1-.088.034zm4.249-7.491h-2.376v3.453h2.376q.866 0 1.325-.43.459-.429.459-1.302 0-.86-.459-1.287-.46-.428-1.325-.434m4.455 7.49a.13.13 0 0 1-.062-.015.1.1 0 0 1-.046-.044.11.11 0 0 1 .002-.118l2.608-4.063a.575.575 0 0 0 0-.666l-2.599-3.797a.11.11 0 0 1-.005-.119.1.1 0 0 1 .046-.044.13.13 0 0 1 .064-.017h1.826c.042 0 .082.02.105.053l2.276 3.247c.048.07.112.13.187.17.074.04.157.062.24.062h.135a.5.5 0 0 0 .24-.062q.116-.064.188-.17l2.276-3.247a.1.1 0 0 1 .045-.038.13.13 0 0 1 .06-.015h1.823c.099 0 .158.102.105.18l-2.597 3.797a.57.57 0 0 0 0 .665l2.607 4.064a.11.11 0 0 1 .002.119.1.1 0 0 1-.046.043.13.13 0 0 1-.064.016h-1.845a.13.13 0 0 1-.06-.014.1.1 0 0 1-.045-.04l-2.265-3.234a.514.514 0 0 0-.427-.227h-.135a.51.51 0 0 0-.427.227l-2.266 3.235a.1.1 0 0 1-.045.039.13.13 0 0 1-.06.014z"/><path fill="url(#b)" fill-rule="evenodd" d="M16.65 24.993c-.862 1.857-2.272 3.445-4.064 4.577a11.85 11.85 0 0 1-6.049 1.807 5.5 5.5 0 0 1-1.006-2.611 5.4 5.4 0 0 1 .425-2.748c.38-.87.983-1.638 1.756-2.238a6.3 6.3 0 0 1 2.673-1.2 6.5 6.5 0 0 1 2.378-.006 6.3 6.3 0 0 1 2.2.847c.667.415 1.24.949 1.686 1.572m.426-.035v-.883q0-.014.008-.026a.1.1 0 0 1 .02-.018l.811-.448a.053.053 0 0 1 .052 0 .1.1 0 0 1 .02.02.1.1 0 0 1 .007.026v.882a.1.1 0 0 1-.008.026.1.1 0 0 1-.018.019l-.813.447a.053.053 0 0 1-.072-.019.1.1 0 0 1-.007-.026m-.554 6.512a5.5 5.5 0 0 0 1.139-3.329c0-.88-.218-1.747-.635-2.535-1.904 2.309-3.11 5.054-3.494 7.95a6.1 6.1 0 0 0 2.99-2.086" clip-rule="evenodd"/></g><defs><linearGradient id="b" x1=".338" x2="17.534" y1="25.498" y2="34.295" gradientUnits="userSpaceOnUse"><stop stop-color="#C040FC"/><stop offset="1" stop-color="#4B3CFF"/></linearGradient><clipPath id="a"><path fill="#fff" d="M5 22h46v12H5z"/></clipPath></defs></svg>